Coordinates
version=1
nRows=8
nColumns=63
inDegrees=yes

Units are S.I. units (second, meters, Newtons, ...)
If the header above contains a line with 'inDegrees', this indicates whether rotational values are in degrees (yes) or radians (no).

endheader
time	pelvis_tilt	pelvis_list	pelvis_rotation	pelvis_tx	pelvis_ty	pelvis_tz	hip_flexion_r	hip_adduction_r	hip_rotation_r	knee_angle_r	knee_angle_r_beta	ankle_angle_r	subtalar_angle_r	mtp_angle_r	hip_flexion_l	hip_adduction_l	hip_rotation_l	knee_angle_l	knee_angle_l_beta	ankle_angle_l	subtalar_angle_l	mtp_angle_l	L5_S1_Flex_Ext	L5_S1_Lat_Bending	L5_S1_axial_rotation	L4_L5_Flex_Ext	L4_L5_Lat_Bending	L4_L5_axial_rotation	L3_L4_Flex_Ext	L3_L4_Lat_Bending	L3_L4_axial_rotation	L2_L3_Flex_Ext	L2_L3_Lat_Bending	L2_L3_axial_rotation	L1_L2_Flex_Ext	L1_L2_Lat_Bending	L1_L2_axial_rotation	L1_T12_Flex_Ext	L1_T12_Lat_Bending	L1_T12_axial_rotation	Abs_r3	Abs_r2	Abs_r1	Abs_t1	Abs_t2	neck_flexion	neck_bending	neck_rotation	arm_flex_r	arm_add_r	arm_rot_r	elbow_flex_r	pro_sup_r	wrist_flex_r	wrist_dev_r	arm_flex_l	arm_add_l	arm_rot_l	elbow_flex_l	pro_sup_l	wrist_flex_l	wrist_dev_l
6.466667	-0.078283	-3.362484	104.434686	0.169556	0.795364	0.707915	3.744410	3.344029	-11.900033	12.197689	0.212890	25.108758	-4.638759	0.000000	4.079699	-2.158099	16.927422	4.226165	0.073760	27.347603	-3.492769	0.000000	-0.036984	-0.345482	-1.709711	-0.068682	-0.459491	-1.816568	-0.060760	-0.840005	-1.816568	-0.042269	-0.840005	-1.495997	-0.034343	-0.704507	-1.389140	-0.021132	-0.535152	-1.282283	-0.264170	-3.908162	-9.508900	0.000000	0.000000	25.971792	-1.659969	-22.898630	2.080032	-17.454904	54.333270	31.438409	48.550775	3.989485	9.379214	11.844544	-8.575391	174.910700	0.375706	24.272155	-16.483338	-0.736322
6.483333	-0.032594	-3.501207	104.105964	0.168994	0.795110	0.709425	4.138010	3.235435	-11.593504	12.491465	0.218017	25.033320	-4.724817	0.000000	4.256208	-2.069629	17.052971	4.231815	0.073859	27.238350	-4.065429	0.000000	-0.038623	-0.337600	-1.580813	-0.071726	-0.449008	-1.679614	-0.063453	-0.820840	-1.679614	-0.044142	-0.820840	-1.383212	-0.035865	-0.688434	-1.284411	-0.022069	-0.522942	-1.185610	-0.275878	-3.818997	-8.792010	0.000000	0.000000	26.054985	-1.972938	-23.335748	2.409894	-17.606246	55.362840	31.404688	47.283635	4.195288	9.200063	12.163091	-8.122964	175.733000	0.368552	23.491730	-16.232610	-0.902804
6.500000	0.015484	-3.598353	103.776134	0.168564	0.794906	0.710778	4.515810	3.154921	-11.253393	12.800346	0.223408	25.060203	-4.749993	0.000000	4.342417	-2.026500	17.108139	4.145024	0.072344	27.087256	-4.471063	0.000000	-0.041466	-0.330690	-1.459352	-0.077007	-0.439818	-1.550561	-0.068125	-0.804040	-1.550561	-0.047392	-0.804040	-1.276933	-0.038506	-0.674343	-1.185723	-0.023694	-0.512239	-1.094514	-0.296189	-3.740831	-8.116476	0.000000	0.000000	25.956430	-2.195623	-23.773384	2.793367	-17.769898	56.557487	31.413070	46.229466	4.220039	8.832047	12.385379	-7.743034	176.597704	0.354491	22.139805	-15.827848	-1.195739
6.516667	0.063970	-3.664835	103.453476	0.168269	0.794736	0.711925	4.871904	3.099147	-10.909948	13.106685	0.228755	25.179179	-4.692576	0.000000	4.350893	-2.023664	17.116138	3.975244	0.069381	26.888389	-4.743975	0.000000	-0.044575	-0.325115	-1.351308	-0.082780	-0.432403	-1.435765	-0.073232	-0.790484	-1.435765	-0.050944	-0.790484	-1.182395	-0.041392	-0.662974	-1.097938	-0.025470	-0.503603	-1.013481	-0.318393	-3.677762	-7.515571	0.000000	0.000000	25.728639	-2.318418	-24.159769	3.152296	-17.913569	57.632263	31.472045	45.404731	4.091610	8.365675	12.483635	-7.456491	177.188073	0.318486	20.264134	-15.277285	-1.692186
6.533333	0.109878	-3.702980	103.162392	0.168093	0.794585	0.712813	5.194443	3.063541	-10.606989	13.406866	0.233994	25.380190	-4.554795	0.000000	4.289602	-2.055761	17.089105	3.734249	0.065175	26.660554	-4.878469	0.000000	-0.048006	-0.321522	-1.260759	-0.089152	-0.427625	-1.339557	-0.078869	-0.781749	-1.339557	-0.054866	-0.781749	-1.103164	-0.044578	-0.655648	-1.024367	-0.027431	-0.498038	-0.945569	-0.342902	-3.637125	-7.011965	0.000000	0.000000	25.390950	-2.353503	-24.505218	3.427931	-18.022061	58.418815	31.599129	44.750389	3.862068	7.890571	12.443167	-7.274250	177.407199	0.235341	17.888709	-14.599791	-2.443061
6.550000	0.139566	-3.720467	102.934211	0.168013	0.794446	0.713445	5.474052	3.032520	-10.388661	13.687997	0.238901	25.629962	-4.376159	0.000000	4.179110	-2.102025	17.063706	3.442700	0.060086	26.404079	-4.899740	0.000000	-0.051799	-0.321607	-1.199971	-0.096195	-0.427737	-1.274969	-0.085100	-0.781954	-1.274969	-0.059201	-0.781954	-1.049975	-0.048100	-0.655820	-0.974977	-0.029598	-0.498169	-0.899978	-0.369993	-3.638078	-6.673880	0.000000	0.000000	25.014573	-2.308594	-24.736351	3.675260	-18.084445	59.081270	31.744814	44.383731	3.532732	7.358476	12.240519	-7.217399	176.867946	0.121768	14.981858	-13.687117	-3.555806
6.566667	0.159431	-3.714297	102.781613	0.168000	0.794301	0.713773	5.709779	3.007041	-10.271629	13.977567	0.243955	25.945889	-4.139961	0.000000	4.029344	-2.166591	17.008473	3.124776	0.054538	26.174111	-4.748640	0.000000	-0.055575	-0.325650	-1.153640	-0.103207	-0.433115	-1.225742	-0.091303	-0.791786	-1.225742	-0.063516	-0.791786	-1.009435	-0.051607	-0.664066	-0.937332	-0.031755	-0.504433	-0.865230	-0.396963	-3.683823	-6.416199	0.000000	0.000000	24.578969	-2.201671	-25.012308	3.742784	-18.083906	59.195608	31.933804	44.241860	3.256816	6.899789	11.958971	-7.278792	175.722773	0.069747	11.986773	-12.771411	-4.883693
6.583333	0.162796	-3.683880	102.711116	0.168060	0.794142	0.713831	5.891438	2.980942	-10.283257	14.265287	0.248976	26.296599	-3.868655	0.000000	3.852466	-2.238510	16.902459	2.804113	0.048941	25.988833	-4.407709	0.000000	-0.060115	-0.334475	-1.125537	-0.111639	-0.444852	-1.195883	-0.098763	-0.813242	-1.195883	-0.068705	-0.813242	-0.984845	-0.055823	-0.682061	-0.914499	-0.034350	-0.518102	-0.844153	-0.429394	-3.783646	-6.259899	0.000000	0.000000	24.136347	-2.091903	-25.328789	3.694809	-18.034580	58.947560	32.152242	44.455035	3.004057	6.563855	11.602044	-7.479336	173.813744	0.128065	9.025871	-11.846312	-6.433677
